<svg width="705" height="900" viewBox="0 0 705 900" fill="none" xmlns="http://www.w3.org/2000/svg">
<g clip-path="url(#clip0_164_364)">
<rect width="705" height="900" fill="white"/>
<rect width="705" height="900" fill="#3B82F6"/>
<line x1="249" y1="257" x2="442" y2="257" stroke="#4589EF" stroke-opacity="0.56" stroke-width="2" stroke-linecap="round" stroke-dasharray="1 10"/>
<line x1="249" y1="264.736" x2="442" y2="264.736" stroke="#4589EF" stroke-opacity="0.56" stroke-width="2" stroke-linecap="round" stroke-dasharray="1 10"/>
<line x1="249" y1="272.472" x2="442" y2="272.472" stroke="#4589EF" stroke-opacity="0.56" stroke-width="2" stroke-linecap="round" stroke-dasharray="1 10"/>
<line x1="249" y1="280.208" x2="442" y2="280.208" stroke="#4589EF" stroke-opacity="0.56" stroke-width="2" stroke-linecap="round" stroke-dasharray="1 10"/>
<line x1="249" y1="287.943" x2="442" y2="287.943" stroke="#4589EF" stroke-opacity="0.56" stroke-width="2" stroke-linecap="round" stroke-dasharray="1 10"/>
<line x1="249" y1="295.679" x2="442" y2="295.679" stroke="#4589EF" stroke-opacity="0.56" stroke-width="2" stroke-linecap="round" stroke-dasharray="1 10"/>
<line x1="249" y1="303.415" x2="442" y2="303.415" stroke="#4589EF" stroke-opacity="0.56" stroke-width="2" stroke-linecap="round" stroke-dasharray="1 10"/>
<line x1="249" y1="311.151" x2="442" y2="311.151" stroke="#4589EF" stroke-opacity="0.56" stroke-width="2" stroke-linecap="round" stroke-dasharray="1 10"/>
<line x1="249" y1="318.887" x2="442" y2="318.887" stroke="#4589EF" stroke-opacity="0.56" stroke-width="2" stroke-linecap="round" stroke-dasharray="1 10"/>
<line x1="249" y1="326.623" x2="442" y2="326.623" stroke="#4589EF" stroke-opacity="0.56" stroke-width="2" stroke-linecap="round" stroke-dasharray="1 10"/>
<line x1="249" y1="334.358" x2="442" y2="334.358" stroke="#4589EF" stroke-opacity="0.56" stroke-width="2" stroke-linecap="round" stroke-dasharray="1 10"/>
<line x1="249" y1="342.094" x2="442" y2="342.094" stroke="#4589EF" stroke-opacity="0.56" stroke-width="2" stroke-linecap="round" stroke-dasharray="1 10"/>
<line x1="249" y1="349.83" x2="442" y2="349.83" stroke="#4589EF" stroke-opacity="0.56" stroke-width="2" stroke-linecap="round" stroke-dasharray="1 10"/>
<line x1="77" y1="693" x2="270" y2="693" stroke="#4589EF" stroke-opacity="0.56" stroke-width="2" stroke-linecap="round" stroke-dasharray="1 10"/>
<line x1="77" y1="700.736" x2="270" y2="700.736" stroke="#4589EF" stroke-opacity="0.56" stroke-width="2" stroke-linecap="round" stroke-dasharray="1 10"/>
<line x1="77" y1="708.472" x2="270" y2="708.472" stroke="#4589EF" stroke-opacity="0.56" stroke-width="2" stroke-linecap="round" stroke-dasharray="1 10"/>
<line x1="77" y1="716.208" x2="270" y2="716.208" stroke="#4589EF" stroke-opacity="0.56" stroke-width="2" stroke-linecap="round" stroke-dasharray="1 10"/>
<line x1="77" y1="723.943" x2="270" y2="723.943" stroke="#4589EF" stroke-opacity="0.56" stroke-width="2" stroke-linecap="round" stroke-dasharray="1 10"/>
<line x1="77" y1="731.679" x2="270" y2="731.679" stroke="#4589EF" stroke-opacity="0.56" stroke-width="2" stroke-linecap="round" stroke-dasharray="1 10"/>
<line x1="77" y1="739.415" x2="270" y2="739.415" stroke="#4589EF" stroke-opacity="0.56" stroke-width="2" stroke-linecap="round" stroke-dasharray="1 10"/>
<line x1="77" y1="747.151" x2="270" y2="747.151" stroke="#4589EF" stroke-opacity="0.56" stroke-width="2" stroke-linecap="round" stroke-dasharray="1 10"/>
<line x1="77" y1="754.887" x2="270" y2="754.887" stroke="#4589EF" stroke-opacity="0.56" stroke-width="2" stroke-linecap="round" stroke-dasharray="1 10"/>
<line x1="77" y1="762.623" x2="270" y2="762.623" stroke="#4589EF" stroke-opacity="0.56" stroke-width="2" stroke-linecap="round" stroke-dasharray="1 10"/>
<line x1="77" y1="770.358" x2="270" y2="770.358" stroke="#4589EF" stroke-opacity="0.56" stroke-width="2" stroke-linecap="round" stroke-dasharray="1 10"/>
<line x1="77" y1="778.094" x2="270" y2="778.094" stroke="#4589EF" stroke-opacity="0.56" stroke-width="2" stroke-linecap="round" stroke-dasharray="1 10"/>
<line x1="77" y1="785.83" x2="270" y2="785.83" stroke="#4589EF" stroke-opacity="0.56" stroke-width="2" stroke-linecap="round" stroke-dasharray="1 10"/>
<rect x="-491" y="627.399" width="460.184" height="873.21" transform="rotate(-45 -491 627.399)" fill="url(#paint0_linear_164_364)" fill-opacity="0.2"/>
<rect x="925.553" y="-372" width="445.254" height="1102.13" transform="rotate(46.0557 925.553 -372)" fill="url(#paint1_linear_164_364)" fill-opacity="0.2"/>
<line x1="249" y1="245" x2="442" y2="245" stroke="#1F2937" stroke-opacity="0.3" stroke-width="2" stroke-linecap="round" stroke-dasharray="1 10"/>
<line x1="249" y1="253.736" x2="442" y2="253.736" stroke="#1F2937" stroke-opacity="0.3" stroke-width="2" stroke-linecap="round" stroke-dasharray="1 10"/>
<line x1="249" y1="262.472" x2="442" y2="262.472" stroke="#1F2937" stroke-opacity="0.3" stroke-width="2" stroke-linecap="round" stroke-dasharray="1 10"/>
<line x1="249" y1="271.208" x2="442" y2="271.208" stroke="#1F2937" stroke-opacity="0.3" stroke-width="2" stroke-linecap="round" stroke-dasharray="1 10"/>
<line x1="249" y1="279.943" x2="442" y2="279.943" stroke="#1F2937" stroke-opacity="0.3" stroke-width="2" stroke-linecap="round" stroke-dasharray="1 10"/>
<line x1="249" y1="288.679" x2="442" y2="288.679" stroke="#1F2937" stroke-opacity="0.3" stroke-width="2" stroke-linecap="round" stroke-dasharray="1 10"/>
<line x1="249" y1="297.415" x2="442" y2="297.415" stroke="#1F2937" stroke-opacity="0.3" stroke-width="2" stroke-linecap="round" stroke-dasharray="1 10"/>
<line x1="249" y1="306.151" x2="442" y2="306.151" stroke="#1F2937" stroke-opacity="0.3" stroke-width="2" stroke-linecap="round" stroke-dasharray="1 10"/>
<line x1="249" y1="314.887" x2="442" y2="314.887" stroke="#1F2937" stroke-opacity="0.3" stroke-width="2" stroke-linecap="round" stroke-dasharray="1 10"/>
<line x1="249" y1="323.623" x2="442" y2="323.623" stroke="#1F2937" stroke-opacity="0.3" stroke-width="2" stroke-linecap="round" stroke-dasharray="1 10"/>
<line x1="249" y1="332.359" x2="442" y2="332.359" stroke="#1F2937" stroke-opacity="0.3" stroke-width="2" stroke-linecap="round" stroke-dasharray="1 10"/>
<line x1="249" y1="341.094" x2="442" y2="341.094" stroke="#1F2937" stroke-opacity="0.3" stroke-width="2" stroke-linecap="round" stroke-dasharray="1 10"/>
<line x1="249" y1="349.83" x2="442" y2="349.83" stroke="#1F2937" stroke-opacity="0.3" stroke-width="2" stroke-linecap="round" stroke-dasharray="1 10"/>
<line x1="77" y1="686" x2="270" y2="686" stroke="#1F2937" stroke-opacity="0.3" stroke-width="2" stroke-linecap="round" stroke-dasharray="1 10"/>
<line x1="77" y1="693.736" x2="270" y2="693.736" stroke="#1F2937" stroke-opacity="0.3" stroke-width="2" stroke-linecap="round" stroke-dasharray="1 10"/>
<line x1="77" y1="701.472" x2="270" y2="701.472" stroke="#1F2937" stroke-opacity="0.3" stroke-width="2" stroke-linecap="round" stroke-dasharray="1 10"/>
<line x1="77" y1="709.208" x2="270" y2="709.208" stroke="#1F2937" stroke-opacity="0.3" stroke-width="2" stroke-linecap="round" stroke-dasharray="1 10"/>
<line x1="77" y1="716.943" x2="270" y2="716.943" stroke="#1F2937" stroke-opacity="0.3" stroke-width="2" stroke-linecap="round" stroke-dasharray="1 10"/>
<line x1="77" y1="724.679" x2="270" y2="724.679" stroke="#1F2937" stroke-opacity="0.3" stroke-width="2" stroke-linecap="round" stroke-dasharray="1 10"/>
<line x1="77" y1="732.415" x2="270" y2="732.415" stroke="#1F2937" stroke-opacity="0.3" stroke-width="2" stroke-linecap="round" stroke-dasharray="1 10"/>
<line x1="77" y1="740.151" x2="270" y2="740.151" stroke="#1F2937" stroke-opacity="0.3" stroke-width="2" stroke-linecap="round" stroke-dasharray="1 10"/>
<line x1="77" y1="747.887" x2="270" y2="747.887" stroke="#1F2937" stroke-opacity="0.3" stroke-width="2" stroke-linecap="round" stroke-dasharray="1 10"/>
<line x1="77" y1="755.623" x2="270" y2="755.623" stroke="#1F2937" stroke-opacity="0.3" stroke-width="2" stroke-linecap="round" stroke-dasharray="1 10"/>
<line x1="77" y1="763.358" x2="270" y2="763.358" stroke="#1F2937" stroke-opacity="0.3" stroke-width="2" stroke-linecap="round" stroke-dasharray="1 10"/>
<line x1="77" y1="771.094" x2="270" y2="771.094" stroke="#1F2937" stroke-opacity="0.3" stroke-width="2" stroke-linecap="round" stroke-dasharray="1 10"/>
<line x1="77" y1="778.83" x2="270" y2="778.83" stroke="#1F2937" stroke-opacity="0.3" stroke-width="2" stroke-linecap="round" stroke-dasharray="1 10"/>
</g>
<defs>
<linearGradient id="paint0_linear_164_364" x1="-260.908" y1="627.399" x2="-260.908" y2="1500.61" gradientUnits="userSpaceOnUse">
<stop stop-color="white"/>
<stop offset="1" stop-color="white" stop-opacity="0"/>
</linearGradient>
<linearGradient id="paint1_linear_164_364" x1="1148.18" y1="-372" x2="1148.18" y2="730.134" gradientUnits="userSpaceOnUse">
<stop stop-color="white"/>
<stop offset="0.919792" stop-color="white" stop-opacity="0.0802085"/>
<stop offset="1" stop-color="white" stop-opacity="0"/>
</linearGradient>
<clipPath id="clip0_164_364">
<rect width="705" height="900" fill="white"/>
</clipPath>
</defs>
</svg>
