<svg width="100%" height="100%" viewBox="0 0 22 22" fill="none" xmlns="http://www.w3.org/2000/svg">
<path fill-rule="evenodd" clip-rule="evenodd" d="M10.5 15.5H5.25C4.65326 15.5 4.08097 15.2629 3.65901 14.841C3.23705 14.419 3 13.8467 3 13.25V7.25C3 6.65326 3.23705 6.08097 3.65901 5.65901C4.08097 5.23705 4.65326 5 5.25 5H17.25C17.8467 5 18.419 5.23705 18.841 5.65901C19.2629 6.08097 19.5 6.65326 19.5 7.25V13.25C19.5 13.8467 19.2629 14.419 18.841 14.841C18.419 15.2629 17.8467 15.5 17.25 15.5H12V17H14.25C14.4489 17 14.6397 17.079 14.7803 17.2197C14.921 17.3603 15 17.5511 15 17.75C15 17.9489 14.921 18.1397 14.7803 18.2803C14.6397 18.421 14.4489 18.5 14.25 18.5H8.25C8.05109 18.5 7.86032 18.421 7.71967 18.2803C7.57902 18.1397 7.5 17.9489 7.5 17.75C7.5 17.5511 7.57902 17.3603 7.71967 17.2197C7.86032 17.079 8.05109 17 8.25 17H10.5V15.5ZM5.25 6.5H17.25C17.4489 6.5 17.6397 6.57902 17.7803 6.71967C17.921 6.86032 18 7.05109 18 7.25V13.25C18 13.4489 17.921 13.6397 17.7803 13.7803C17.6397 13.921 17.4489 14 17.25 14H5.25C5.05109 14 4.86032 13.921 4.71967 13.7803C4.57902 13.6397 4.5 13.4489 4.5 13.25V7.25C4.5 7.05109 4.57902 6.86032 4.71967 6.71967C4.86032 6.57902 5.05109 6.5 5.25 6.5V6.5Z" fill="#333333"/>
</svg>
